Coordinates
version=1
nRows=29
nColumns=18
inDegrees=yes

Units are S.I. units (second, meters, Newtons, ...)
If the header above contains a line with 'inDegrees', this indicates whether rotational values are in degrees (yes) or radians (no).

endheader
time	ground_thorax_rot_x	ground_thorax_rot_y	ground_thorax_rot_z	ground_thorax_tx	ground_thorax_ty	ground_thorax_tz	clav_prot	clav_elev	scapula_abduction	scapula_elevation	scapula_upward_rot	scapula_winging	plane_elv	shoulder_elv	axial_rot	elbow_flexion	pro_sup
      1.15000000	      0.85871380	     -7.40701718	    -11.79748056	      0.00000000	      0.00000000	      0.00000000	    -17.41085095	      5.81922728	     -2.24820887	      2.11271553	     19.93703344	      1.19474045	     -7.16606759	     11.81334389	     34.22509646	      0.00000000	     34.32000000
      1.16000000	      0.43657954	     -7.15183822	    -11.72286017	      0.00000000	      0.00000000	      0.00000000	    -17.37368789	      6.10063976	     -2.17718474	      2.28304841	     20.10470535	      1.13328184	     -6.98808253	     11.35408195	     34.19610650	      0.00000000	     34.32000000
      1.17000000	      0.43680124	     -7.00999244	    -11.68168458	      0.00000000	      0.00000000	      0.00000000	    -17.58920098	      6.74701909	     -2.74690244	      2.72640796	     20.23128300	      1.12949129	     -3.49826816	     11.67595756	     29.38439006	      0.00000000	     34.32000000
      1.18000000	      0.27996463	     -7.12721877	    -11.78279724	      0.00000000	      0.00000000	      0.00000000	    -17.75518110	      7.17286018	     -2.78051524	      2.87413209	     20.88074136	      0.95079285	     -3.19329188	     10.92782682	     29.42132878	      0.00000000	     34.32000000
      1.19000000	      0.69739782	     -7.11974876	    -11.82479990	      0.00000000	      0.00000000	      0.00000000	    -18.15587781	      7.91724322	     -3.20913911	      3.18948880	     21.77564423	      0.73639031	     -2.09362513	     10.68088910	     28.69223573	      0.00000000	     34.32000000
      1.20000000	      0.81833142	     -6.99311964	    -11.75443655	      0.00000000	      0.00000000	      0.00000000	    -18.33809950	      8.33411607	     -3.36201249	      3.36506682	     22.29129191	      0.60751577	     -2.07424570	     10.59174554	     27.81046649	      0.00000000	     34.32000000
      1.21000000	      0.77696376	     -6.79103732	    -11.84550458	      0.00000000	      0.00000000	      0.00000000	    -18.41097765	      8.46830083	     -3.30592196	      3.37603586	     22.64027428	      0.50782904	     -2.31923417	     10.64342397	     27.11427152	      0.00000000	     34.32000000
      1.22000000	      0.52973237	     -6.56986114	    -11.82530109	      0.00000000	      0.00000000	      0.00000000	    -18.39406719	      8.51924261	     -3.22891498	      3.39143623	     22.73593172	      0.47719548	     -2.31272155	     10.69671419	     27.11702468	      0.00000000	     34.32000000
      1.23000000	      0.66839987	     -6.93424910	    -11.83046241	      0.00000000	      0.00000000	      0.00000000	    -18.21233649	      9.21670973	     -2.42128135	      3.65757232	     23.81720364	      0.13854944	     -3.15972519	     10.00275111	     27.44925041	      0.00000000	     34.32000000
      1.24000000	      0.38182647	     -6.97801290	    -11.79730563	      0.00000000	      0.00000000	      0.00000000	    -18.20906051	      9.39186740	     -2.27521041	      3.71654046	     24.11575686	      0.05106702	     -2.88782242	      9.57635149	     27.50766330	      0.00000000	     34.32000000
      1.25000000	      0.57088253	     -7.07126742	    -11.83212709	      0.00000000	      0.00000000	      0.00000000	    -18.43099590	      9.97691405	     -2.39537452	      3.96110153	     24.87370694	     -0.13023815	     -0.89987545	      9.31973739	     26.48737722	      0.00000000	     34.32000000
      1.26000000	      0.63535597	     -7.07167510	    -11.83070918	      0.00000000	      0.00000000	      0.00000000	    -18.58283781	     10.48910940	     -2.41846950	      4.17753871	     25.54091462	     -0.29113289	     -0.47701091	      9.03808417	     25.64155704	      0.00000000	     34.32000000
      1.27000000	      0.54337472	     -7.00967481	    -11.82026198	      0.00000000	      0.00000000	      0.00000000	    -18.61066128	     10.81822987	     -2.27761299	      4.31294325	     26.00235098	     -0.41044391	     -1.06049510	      8.62464820	     27.45817452	      0.00000000	     34.32000000
      1.28000000	      0.70137067	     -6.93225758	    -11.78487864	      0.00000000	      0.00000000	      0.00000000	    -18.81364138	     11.37297093	     -2.45413406	      4.57188188	     26.62017811	     -0.53915800	     -0.10552554	      8.56748399	     25.56525822	      0.00000000	     34.32000000
      1.29000000	      0.56764516	     -6.99012117	    -11.81093894	      0.00000000	      0.00000000	      0.00000000	    -18.78860238	     11.62661843	     -2.15618316	      4.64987144	     27.10565975	     -0.67401823	     -0.13033633	      8.16879364	     25.68610510	      0.00000000	     34.32000000
      1.30000000	      0.50037487	     -7.00697663	    -11.79324187	      0.00000000	      0.00000000	      0.00000000	    -18.80202071	     12.00074208	     -1.98538137	      4.81503613	     27.59554697	     -0.79151350	      0.73089102	      7.57766908	     26.46737749	      0.00000000	     34.32000000
      1.31000000	      0.46437270	     -6.92323830	    -11.76302611	      0.00000000	      0.00000000	      0.00000000	    -18.95778932	     12.55586853	     -2.03399538	      5.06828899	     28.26246825	     -0.92933967	      1.90435475	      6.75616554	     27.10642246	      0.00000000	     34.32000000
      1.32000000	      0.48199308	     -6.69157603	    -11.89957677	      0.00000000	      0.00000000	      0.00000000	    -19.36456923	     12.97604157	     -2.55799493	      5.23028547	     28.84025832	     -1.03361475	      5.25120499	      6.61201386	     23.22843471	      0.00000000	     34.32000000
      1.33000000	      0.41970867	     -6.51432307	    -11.75689857	      0.00000000	      0.00000000	      0.00000000	    -19.53060692	     13.34160544	     -2.79264724	      5.41720990	     29.17885238	     -1.08420319	      4.79261499	      5.97065818	     26.70252248	      0.00000000	     34.32000000
      1.34000000	      0.46223978	     -6.34175082	    -11.82929427	      0.00000000	      0.00000000	      0.00000000	    -19.97077708	     13.70297360	     -3.51457764	      5.57861445	     29.55498382	     -1.13385418	      8.38729516	      6.12535601	     21.92123980	      0.00000000	     34.32000000
      1.35000000	      0.22199507	     -6.39552281	    -11.76925375	      0.00000000	      0.00000000	      0.00000000	    -19.97924645	     13.81864532	     -3.54656610	      5.65075708	     29.61372224	     -1.13560999	      8.44262888	      5.81283917	     21.93353105	      0.00000000	     34.32000000
      1.36000000	      0.49464649	     -6.24327992	    -11.78560046	      0.00000000	      0.00000000	      0.00000000	    -20.35957625	     14.41325352	     -4.10263423	      5.93777506	     30.21759505	     -1.22987807	     11.10865138	      5.58744832	     19.82946774	      0.00000000	     34.32000000
      1.37000000	      0.49146129	     -5.97284628	    -11.87167444	      0.00000000	      0.00000000	      0.00000000	    -20.64758005	     14.59093225	     -4.65046559	      6.02693170	     30.33758165	     -1.23571343	     13.86173072	      5.73998765	     16.88969726	      0.00000000	     34.32000000
      1.38000000	      0.51261248	     -5.87791049	    -11.92511750	      0.00000000	      0.00000000	      0.00000000	    -20.75120303	     14.84423567	     -4.81623886	      6.16180860	     30.55093905	     -1.26294391	     15.64496582	      5.78680136	     14.99494942	      0.00000000	     34.32000000
      1.39000000	      0.29096064	     -5.82285083	    -11.89110282	      0.00000000	      0.00000000	      0.00000000	    -20.66814479	     14.94120092	     -4.63790946	      6.21826953	     30.64320536	     -1.27766921	     15.62100385	      5.46889924	     15.06362574	      0.00000000	     34.32000000
      1.40000000	      0.43127344	     -5.85244301	    -11.93518678	      0.00000000	      0.00000000	      0.00000000	    -20.83208695	     15.42432558	     -4.64236570	      6.41498446	     31.34625178	     -1.42326959	     17.12411905	      5.14217927	     13.61612751	      0.00000000	     34.32000000
      1.41000000	      0.17638084	     -5.86626173	    -11.83830174	      0.00000000	      0.00000000	      0.00000000	    -20.73931536	     15.52897878	     -4.39605434	      6.46448683	     31.50184524	     -1.45514295	     17.17597507	      4.74229765	     13.69449680	      0.00000000	     34.32000000
      1.42000000	      0.02392205	     -5.84718528	    -11.81554848	      0.00000000	      0.00000000	      0.00000000	    -20.74314916	     15.56554944	     -4.36788144	      6.47708788	     31.56898702	     -1.47058884	     17.18866136	      4.75657931	     13.70185556	      0.00000000	     34.32000000
      1.43000000	      0.20821581	     -6.04134417	    -11.87080918	      0.00000000	      0.00000000	      0.00000000	    -20.90238122	     16.07514926	     -4.33619723	      6.68625058	     32.31884907	     -1.62032522	     19.73006957	      4.37619014	     11.80849137	      0.00000000	     34.32000000
